<svg preserveAspectRatio="none" overflow="visible" style="display: block;" width="16" height="16" viewBox="0 0 16 16" fill="none" xmlns="http://www.w3.org/2000/svg">
<g id="Actions/Magnifier">
<g id="Vector">
<path fill-rule="evenodd" clip-rule="evenodd" d="M7.00042 2.63414C4.589 2.63414 2.63416 4.58897 2.63416 7.00037C2.63416 9.41176 4.589 11.3666 7.00042 11.3666C9.41184 11.3666 11.3667 9.41176 11.3667 7.00037C11.3667 4.58897 9.41184 2.63414 7.00042 2.63414ZM1.33333 7.00037C1.33333 3.87055 3.87058 1.33333 7.00042 1.33333C10.1303 1.33333 12.6675 3.87055 12.6675 7.00037C12.6675 10.1302 10.1303 12.6674 7.00042 12.6674C3.87058 12.6674 1.33333 10.1302 1.33333 7.00037Z" fill="white"/>
<path fill-rule="evenodd" clip-rule="evenodd" d="M10.0854 10.0854C10.3394 9.83144 10.7512 9.83144 11.0052 10.0854L14.4762 13.5564C14.7302 13.8104 14.7302 14.2222 14.4762 14.4762C14.2222 14.7302 13.8103 14.7302 13.5563 14.4762L10.0854 11.0053C9.83139 10.7513 9.83139 10.3394 10.0854 10.0854Z" fill="white"/>
</g>
</g>
</svg>
