<svg preserveAspectRatio="none" overflow="visible" style="display: block;" width="16" height="16" viewBox="0 0 16 16" fill="none" xmlns="http://www.w3.org/2000/svg">
<g id="Map/PaperMap">
<path id="Vector" fill-rule="evenodd" clip-rule="evenodd" d="M14.362 3.13496C14.5534 3.26831 14.6667 3.48173 14.6667 3.70892V11.7864C14.6667 12.093 14.4616 12.3649 14.1584 12.4602L10.4341 13.6315C10.2961 13.6749 10.1479 13.6782 10.008 13.641L5.8167 12.5267L2.30015 13.6316C2.0755 13.7022 1.82926 13.665 1.63793 13.5316C1.44659 13.3983 1.33333 13.1849 1.33333 12.9577V4.88023C1.33333 4.57358 1.53848 4.30169 1.84175 4.2064L5.56975 3.0351C5.70765 2.99177 5.85578 2.98849 5.9956 3.02567L10.1868 4.13994L13.6997 3.03516C13.9243 2.9645 14.1706 3.00162 14.362 3.13496ZM9.46704 5.41966L6.53656 4.64056V11.247L9.46704 12.0261V5.41966ZM10.9423 11.9799L13.1914 11.2725V4.6868L10.9423 5.39416V11.9799ZM5.06133 11.2724V4.68651L2.80857 5.39431V11.9802L5.06133 11.2724Z" fill="#3A4757"/>
</g>
</svg>
