<svg preserveAspectRatio="none" overflow="visible" style="display: block;" width="16" height="16" viewBox="0 0 16 16" fill="none" xmlns="http://www.w3.org/2000/svg">
<g id="Map/Car">
<path id="Vector" fill-rule="evenodd" clip-rule="evenodd" d="M6.03077 3.98814C5.47688 3.98814 4.99407 4.36336 4.85973 4.89822L4.85973 4.89822L4.46528 6.46871H11.223L10.8286 4.89823C10.6942 4.36334 10.2114 3.98814 9.65755 3.98814H6.03077ZM13.9394 7.08809C14.387 7.50595 14.6667 8.09998 14.6667 8.75904V11.4749C14.6667 12.4398 13.8808 13.2221 12.9114 13.2221H12.3316C11.6035 13.2221 10.9796 12.7779 10.7185 12.147H5.28169C5.02053 12.7779 4.39666 13.2221 3.66858 13.2221H3.08877C2.11935 13.2221 1.33348 12.4398 1.33348 11.4749V8.75904C1.33348 8.09897 1.614 7.50413 2.06285 7.08617L1.70047 6.90582C1.37252 6.7426 1.23959 6.34567 1.40357 6.01924C1.56754 5.69281 1.96633 5.5605 2.29427 5.72371L3.17381 6.16144L3.57159 4.57768C3.57159 4.57768 3.57159 4.57768 3.57159 4.57768C3.8537 3.45446 4.86761 2.6665 6.03077 2.6665H9.65755C10.8207 2.6665 11.8346 3.45448 12.1167 4.57767L11.4726 4.73795L12.1167 4.57767L12.53 6.22297C12.5842 6.1808 12.646 6.14637 12.7143 6.12194L13.5946 5.807C13.9397 5.68357 14.3199 5.86192 14.444 6.20537C14.568 6.54882 14.3888 6.92731 14.0437 7.05075L13.9394 7.08809ZM3.63447 7.79034C3.09699 7.79034 2.66127 8.22404 2.66127 8.75904V11.4749C2.66127 11.7099 2.85267 11.9004 3.08877 11.9004H3.66858C3.89841 11.9004 4.08472 11.715 4.08472 11.4862C4.08472 11.1213 4.38195 10.8254 4.74861 10.8254H11.2515C11.6182 10.8254 11.9154 11.1213 11.9154 11.4862C11.9154 11.715 12.1017 11.9004 12.3316 11.9004H12.9114C13.1475 11.9004 13.3389 11.7099 13.3389 11.4749V8.75904C13.3389 8.22404 12.9032 7.79034 12.3657 7.79034H3.63447ZM3.59435 9.4574C3.59435 9.09244 3.89159 8.79658 4.25824 8.79658H5.19373C5.56039 8.79658 5.85762 9.09244 5.85762 9.4574C5.85762 9.82236 5.56039 10.1182 5.19373 10.1182H4.25824C3.89159 10.1182 3.59435 9.82236 3.59435 9.4574ZM10.1428 9.4574C10.1428 9.09244 10.44 8.79658 10.8066 8.79658H11.7421C12.1088 8.79658 12.406 9.09244 12.406 9.4574C12.406 9.82236 12.1088 10.1182 11.7421 10.1182H10.8066C10.44 10.1182 10.1428 9.82236 10.1428 9.4574Z" fill="#627C93"/>
</g>
</svg>
