<svg preserveAspectRatio="none" overflow="visible" style="display: block;" width="12" height="12" viewBox="0 0 12 12" fill="none" xmlns="http://www.w3.org/2000/svg">
<g id="options/star">
<path id="Vector" d="M5.52183 1.14823C5.39709 1.23143 5.27235 1.35623 5.18919 1.52262L4.14969 3.81055L1.77963 4.14334C1.61331 4.14334 1.48857 4.22654 1.32225 4.30973C1.19751 4.43453 1.07277 4.55932 1.03119 4.72572C0.989605 4.93371 0.989605 5.10011 1.03119 5.2665C1.07277 5.4329 1.15593 5.59929 1.28067 5.72409L3.02703 7.47123L2.61123 9.96715C2.56965 10.1335 2.61123 10.2999 2.65281 10.4663C2.69439 10.6327 2.81913 10.7575 2.94387 10.8407C3.06861 10.9239 3.23493 11.0071 3.40125 11.0071C3.56757 11.0071 3.73389 10.9655 3.85863 10.9239L6.02079 9.75916L8.18295 10.9239C8.30769 11.0071 8.47401 11.0487 8.64033 11.0071C8.80665 11.0071 8.97297 10.9239 9.09771 10.8407C9.22245 10.7575 9.34719 10.5911 9.38877 10.4663C9.43035 10.2999 9.47193 10.1335 9.43035 9.96715L9.01455 7.47123L10.7193 5.68249C10.8441 5.55769 10.9272 5.4329 10.9688 5.2665C11.0104 5.10011 11.0104 4.93371 10.9688 4.76732C10.9272 4.60092 10.8441 4.47613 10.7193 4.35133C10.5946 4.22653 10.4283 4.18494 10.3035 4.14334L7.93347 3.76895L6.85239 1.52262C6.76923 1.35623 6.68607 1.23143 6.51975 1.14823C6.39501 1.06504 6.27027 1.02344 6.14553 1.02344H5.97921C5.77131 1.06504 5.64657 1.10663 5.52183 1.14823Z" fill="#EC5A13"/>
</g>
</svg>
